<svg width="40" height="21" viewBox="0 0 40 21" fill="none" xmlns="http://www.w3.org/2000/svg">
<g clip-path="url(#clip0_1007_339)">
<path d="M2.68511 16.8738C2.51735 16.6041 2.29367 16.1732 2.15551 15.8541C1.3496 13.9857 1.31342 12.0515 1.99104 10.1963C2.73774 8.1601 4.16536 6.6042 6.01074 5.80815C8.32979 4.81145 10.8923 5.00553 13.1159 6.32459C14.5271 7.1338 15.5271 8.38378 16.287 10.1535C16.3823 10.3805 16.4679 10.6206 16.5534 10.8278L2.68511 16.8738ZM7.31665 8.81141C5.66864 9.51864 4.81996 11.0647 4.99759 12.8739L11.9712 9.87061C10.7706 8.46273 9.21137 7.99563 7.31665 8.81141V8.81141ZM12.8396 15.3442C12.8363 15.3442 12.8363 15.3475 12.8363 15.3475L12.6916 15.2489C12.2738 15.9232 11.6258 16.4725 10.8067 16.8278C9.24755 17.5054 7.80348 17.3311 6.76402 16.4199L6.66863 16.5646C6.66863 16.5646 6.66863 16.5613 6.66534 16.5613L4.89562 19.2093C5.3364 19.5153 5.80679 19.7718 6.30021 19.9791C8.25414 20.7916 10.2541 20.7521 12.2245 19.8968C13.6488 19.2784 14.7672 18.3376 15.5304 17.1436L12.8396 15.3442ZM21.3987 1.91345V16.6304L23.6882 17.558L22.3889 20.5909L19.8626 19.5383C19.2968 19.2916 18.9086 18.9166 18.6192 18.4922C18.3396 18.0613 18.1323 17.4659 18.1323 16.6699V1.91345H21.3987ZM27.3263 12.8837C27.3263 11.6305 27.8822 10.5055 28.7572 9.74232L26.4086 7.12393C24.8165 8.53181 23.8132 10.5877 23.8132 12.8772C23.8099 15.1699 24.8132 17.2291 26.402 18.637L28.7474 16.0186C27.8757 15.2521 27.3263 14.1337 27.3263 12.8837V12.8837ZM31.4973 17.058C31.0368 17.058 30.5894 16.9791 30.175 16.8409L29.0533 20.1731C29.8197 20.4297 30.6388 20.5712 31.494 20.5712C35.2111 20.5745 38.3131 17.9363 39.0334 14.4331L35.5861 13.7291C35.1947 15.6337 33.5138 17.0613 31.4973 17.058V17.058ZM31.5072 5.19631C30.6552 5.19631 29.8362 5.33447 29.0697 5.58776L30.1816 8.92325C30.5993 8.7851 31.0434 8.70944 31.5039 8.70944C33.5236 8.71273 35.2078 10.1469 35.5894 12.0548L39.0367 11.3574C38.3295 7.84761 35.2276 5.1996 31.5072 5.19631V5.19631Z" fill="white"/>
</g>
<defs>
<clipPath id="clip0_1007_339">
<rect width="40" height="20" fill="white" transform="translate(0 0.691406)"/>
</clipPath>
</defs>
</svg>
